<svg width="87" height="87" viewBox="0 0 87 87" fill="none" xmlns="http://www.w3.org/2000/svg">
<path fill-rule="evenodd" clip-rule="evenodd" d="M35.8416 0.397232C17.4033 4.3131 3.93893 17.6913 0.570492 35.4411C-0.100954 38.9773 -0.201779 47.2689 0.386017 50.5666C3.32275 67.0387 15.2419 80.5475 30.9988 85.2622C39.1854 87.7114 49.3392 87.5621 57.3144 84.8755C70.6907 80.369 81.4085 69.2333 85.3046 55.7935C86.6419 51.1807 86.997 48.5792 87 43.3691C87.0131 22.7378 73.1136 5.49757 52.7446 0.878786C49.3844 0.116517 47.8066 -0.0268316 43.1237 0.00377864C40.0428 0.0239366 36.7659 0.200879 35.8416 0.397232ZM62.8974 28.0887C59.408 29.6714 58.2977 34.397 60.7348 37.2923C63.4295 40.4936 67.776 40.2693 70.3505 36.7961C70.9342 36.0089 71.1317 35.1895 71.1317 33.5571C71.1317 31.2143 70.5189 30.0022 68.6159 28.5818C67.3798 27.6594 64.4091 27.4033 62.8974 28.0887ZM21.8376 35.5773C18.7406 36.9533 17.304 41.1081 18.9871 43.8227C19.3688 44.4386 23.7059 48.9999 28.6252 53.9591C38.2395 63.6514 38.9927 64.1964 41.9896 63.6346C43.8978 63.2766 46.1131 61.1776 46.5982 59.2674C46.8125 58.4238 46.9305 57.5431 46.8607 57.3106C46.7909 57.0784 46.624 56.3841 46.4899 55.7681C46.1893 54.3869 28.4542 36.3672 26.6109 35.5699C25.1164 34.9237 23.3022 34.9263 21.8376 35.5773ZM50.9473 40.055C47.1796 41.6953 46.2897 46.7019 49.2414 49.6528C53.437 53.8468 60.3124 50.0903 59.2085 44.2068C58.9247 42.6953 57.4862 40.8542 55.9816 40.0763C54.6802 39.4036 52.4649 39.3943 50.9473 40.055Z" fill="#14A662"/>
</svg>
