<svg width="28" height="28" viewBox="0 0 28 28" fill="none" xmlns="http://www.w3.org/2000/svg">
<path d="M7.0439 21.2187C6.82515 21.175 6.65015 21.1312 6.4314 21.0437C6.21265 20.9562 6.03765 20.9125 5.86265 20.825C5.4689 20.65 5.1189 20.4312 4.7689 20.1687C4.0689 19.6875 3.50015 19.0312 3.06265 18.2437C2.62515 17.5 2.36265 16.625 2.3189 15.7937C2.27515 15.3562 2.3189 14.9625 2.36265 14.525C2.4064 14.3062 2.45015 14.1312 2.4939 13.9125C2.53765 13.6937 2.62515 13.5187 2.6689 13.3L2.71265 13.9125C2.71265 14.1312 2.7564 14.3062 2.80015 14.525C2.8439 14.9187 2.9314 15.3125 3.0189 15.6625C3.1939 16.4062 3.4564 17.1062 3.85015 17.7625C4.2439 18.4187 4.6814 19.0312 5.25015 19.6C5.51265 19.8625 5.8189 20.125 6.12515 20.3875C6.2564 20.5187 6.4314 20.65 6.6064 20.7812L7.0439 21.2187Z" fill="#3A4640"/>
<path d="M6.9125 22.7937C6.78125 22.8812 6.60625 22.925 6.43125 22.9687C6.25625 23.0125 6.125 23.0562 5.95 23.0562C5.64375 23.1 5.29375 23.1437 4.94375 23.1C4.2875 23.0562 3.5875 22.8812 3.01875 22.575C2.40625 22.2687 1.88125 21.7875 1.53125 21.2187C1.35625 20.9562 1.18125 20.65 1.05 20.3437C1.00625 20.2125 0.9625 20.0375 0.91875 19.8625C0.91875 19.7312 0.875 19.6 0.875 19.425C1.00625 19.5562 1.09375 19.6437 1.18125 19.775C1.3125 19.9062 1.4 20.0375 1.4875 20.125C1.70625 20.3437 1.88125 20.5625 2.1 20.7375C2.5375 21.1312 2.975 21.4812 3.5 21.7437C3.98125 22.0062 4.55 22.225 5.075 22.4C5.3375 22.4875 5.64375 22.5312 5.95 22.6187C6.08125 22.6625 6.25625 22.6625 6.3875 22.7062C6.60625 22.75 6.7375 22.75 6.9125 22.7937Z" fill="#3A4640"/>
<path d="M16.7998 1.53125C17.0186 1.575 17.1936 1.6625 17.4123 1.75C17.6311 1.8375 17.8061 1.925 17.9811 2.0125C18.3748 2.23125 18.7248 2.45 19.0748 2.7125C19.7748 3.2375 20.3436 3.9375 20.7373 4.725C21.1311 5.5125 21.3498 6.3875 21.3498 7.21875C21.3498 7.65625 21.3061 8.05 21.2186 8.4875C21.1748 8.70625 21.1311 8.88125 21.0436 9.1C20.9561 9.31875 20.9123 9.49375 20.8248 9.66875L20.7811 9.05625C20.7811 8.8375 20.7811 8.6625 20.7373 8.44375L20.6061 7.2625C20.4748 6.51875 20.2123 5.775 19.8623 5.075C19.5123 4.375 19.0748 3.7625 18.5498 3.19375C18.2873 2.8875 17.9811 2.625 17.7186 2.31875C17.5873 2.1875 17.4123 2.05625 17.2373 1.925L16.7998 1.53125Z" fill="#3A4640"/>
<path d="M20.6064 1.35625C20.7814 1.4 20.9127 1.44375 21.0439 1.53125C21.1752 1.575 21.3502 1.6625 21.4814 1.75C21.7439 1.925 22.0064 2.1 22.2689 2.31875C22.7502 2.75625 23.1439 3.28125 23.3627 3.89375C23.6252 4.50625 23.7127 5.1625 23.6252 5.81875C23.5814 6.125 23.4939 6.43125 23.4064 6.7375C23.3627 6.86875 23.2752 7.04375 23.2314 7.175C23.1439 7.30625 23.1002 7.4375 22.9689 7.56875V6.69375C22.9689 6.3875 22.9252 6.125 22.9252 5.8625C22.8377 5.29375 22.7502 4.76875 22.5314 4.2875C22.3127 3.7625 22.0502 3.325 21.7439 2.84375C21.5689 2.625 21.3939 2.3625 21.2189 2.14375C21.1314 2.0125 21.0439 1.925 20.9127 1.79375C20.8252 1.575 20.6939 1.44375 20.6064 1.35625Z" fill="#3A4640"/>
<path d="M4.37511 7.875C3.50011 8.26875 3.19386 9.31875 3.58761 10.1938L9.10011 21.7L12.1626 20.2563L6.65011 8.70625C6.25636 7.83125 5.25011 7.4375 4.37511 7.875Z" fill="#FED0AC"/>
<path d="M18.8561 17.0188L22.0936 15.4875L15.7936 2.3625C15.3561 1.4875 14.3061 1.09375 13.3874 1.53125C12.5124 1.96875 12.1186 3.01875 12.5561 3.9375L18.8561 17.0188Z" fill="#FED0AC"/>
<path d="M13.4314 1.4875C13.3439 1.53125 13.2564 1.575 13.1689 1.6625C14.0002 1.44375 14.8752 1.8375 15.2689 2.625L21.5689 15.75L22.1377 15.4875L15.8377 2.3625C15.4002 1.44375 14.3502 1.05 13.4314 1.4875Z" fill="#E0A372"/>
<path d="M12.1627 20.2125L15.5315 18.5938L9.10021 5.20625C8.66271 4.2875 7.52521 3.85 6.60646 4.2875C5.68771 4.725 5.29396 5.8625 5.73146 6.78125L12.1627 20.2125Z" fill="#FED0AC"/>
<path d="M6.60625 4.33125C6.51875 4.375 6.43125 4.41875 6.34375 4.50625C7.175 4.2875 8.1375 4.68125 8.53125 5.5125L12.5125 13.8688L13.475 14.4375L9.1 5.25C8.6625 4.2875 7.56875 3.89375 6.60625 4.33125Z" fill="#E0A372"/>
<path d="M15.0065 17.5437L18.3752 15.925L11.944 2.5375C11.5065 1.61875 10.369 1.18125 9.45021 1.6625C8.53146 2.1 8.13771 3.2375 8.57521 4.15625L15.0065 17.5437Z" fill="#FED0AC"/>
<path d="M9.45 1.61875C9.3625 1.6625 9.275 1.75 9.1875 1.79375C10.0188 1.575 10.9813 1.96875 11.375 2.8L15.8812 12.25L16.8438 12.8187L11.9437 2.5375C11.5062 1.575 10.3688 1.18125 9.45 1.61875Z" fill="#E0A372"/>
<path d="M4.3748 7.875C4.2873 7.91875 4.1998 7.9625 4.1123 8.05C4.8998 7.83125 5.73105 8.225 6.08105 9.0125L9.3623 15.8812L10.3248 16.45L6.6498 8.75C6.25605 7.83125 5.2498 7.4375 4.3748 7.875Z" fill="#E0A372"/>
<path d="M26.6 6.5625C25.4187 5.64375 23.4937 6.65 22.5312 9.8C21.875 11.9875 21.7875 12.6438 20.3875 13.3L19.6 11.6813C19.6 11.6813 7.17496 17.675 7.65621 18.6375C7.65621 18.6375 9.14371 23.275 11.6812 25.4188C15.4437 28.6563 24.2375 25.2 24.6312 16.8438C24.85 11.9875 27.8687 7.56875 26.6 6.5625Z" fill="#FED0AC"/>
<path d="M26.5998 6.5625C26.3811 6.3875 26.1186 6.3 25.8561 6.25625C25.8998 6.3 25.9873 6.3 26.0311 6.34375C27.3436 7.35 25.9873 9.66875 25.2436 11.7688C24.6311 13.4313 24.1061 15.1375 24.1936 16.8C24.5436 24.0625 17.2373 27.5188 12.8623 26.2063C17.1498 28 25.1123 24.5875 24.7623 17.0188C24.6748 15.3563 25.1561 13.7375 25.8123 11.9875C26.5123 9.8875 27.8686 7.56875 26.5998 6.5625Z" fill="#E0A372"/>
<path d="M20.7809 13.125C18.0684 13.4313 14.0871 17.325 16.8871 21.5688C14.8309 17.2812 18.1996 14.3938 20.3434 13.3875C20.5621 13.2125 20.7809 13.125 20.7809 13.125Z" fill="#E0A372"/>
</svg>
